# xmcd
#
# Track frame offsets:
#	150
#	13314
#	26739
#	45969
#	61629
#	77934
#	91710
#	110662
#	127086
#	144974
#	157958
#	173005
#	188462
#	201358
#
# Disc length: 2840 seconds
#
# Revision: 1
# Processed by: cddbd v1.5.2PL0 Copyright (c) Steve Scherf et al.
# Submitted via: audiograbber 1.83.01
#
DISCID=ad0b160e
DTITLE=Willie Nelson and Merle Haggard - Django and Jimmie
DYEAR=2015
DGENRE=Country
TTITLE0=Django And Jimmie
TTITLE1=It's All Going To Pot (with Jamey Johnson)
TTITLE2=Unfair Weather Friend
TTITLE3=Missing Ol' Johnny Cash (with Bobby Bare)
TTITLE4=Live This Long
TTITLE5=Alice In Hulaland
TTITLE6=Don't Think Twice, It's Alright
TTITLE7=Family Bible
TTITLE8=It's Only Money
TTITLE9=Swinging Doors
TTITLE10=Where Dreams Come To Die
TTITLE11=Somewhere Between
TTITLE12=Driving The Herd
TTITLE13=The Only Man Wilder Than Me
EXTD=
EXTT0=
EXTT1=
EXTT2=
EXTT3=
EXTT4=
EXTT5=
EXTT6=
EXTT7=
EXTT8=
EXTT9=
EXTT10=
EXTT11=
EXTT12=
EXTT13=
PLAYORDER=
